<?xml version="1.0" encoding="UTF-8" standalone="no"?>
<svg
   width="24"
   height="24"
   viewBox="0 0 24 24"
   version="1.1"
   id="svg4"
   sodipodi:docname="iconmonstr-linkedin-3.svg"
   xmlns:inkscape="http://www.inkscape.org/namespaces/inkscape"
   xmlns:sodipodi="http://sodipodi.sourceforge.net/DTD/sodipodi-0.dtd"
   xmlns="http://www.w3.org/2000/svg"
   xmlns:svg="http://www.w3.org/2000/svg">
  <defs
     id="defs8" />
  <sodipodi:namedview
     id="namedview6"
     pagecolor="#ffffff"
     bordercolor="#000000"
     borderopacity="0.25"
     inkscape:showpageshadow="2"
     inkscape:pageopacity="0.0"
     inkscape:pagecheckerboard="0"
     inkscape:deskcolor="#d1d1d1"
     showgrid="false" />
  <rect
     style="fill:#ffffff;fill-opacity:1;fill-rule:nonzero"
     id="rect976"
     width="19.808418"
     height="17.920643"
     x="1.9362526"
     y="2.5035028" />
  <path
     d="M 19,0 H 5 C 2.239,0 0,2.239 0,5 v 14 c 0,2.761 2.239,5 5,5 h 14 c 2.762,0 5,-2.239 5,-5 V 5 C 24,2.239 21.762,0 19,0 Z M 8,19 H 5 V 8 H 8 Z M 6.5,6.732 c -0.966,0 -1.75,-0.79 -1.75,-1.764 0,-0.974 0.784,-1.764 1.75,-1.764 0.966,0 1.75,0.79 1.75,1.764 0,0.974 -0.783,1.764 -1.75,1.764 z M 20,19 h -3 v -5.604 c 0,-3.368 -4,-3.113 -4,0 V 19 H 10 V 8 h 3 v 1.765 c 1.396,-2.586 7,-2.777 7,2.476 z"
     id="path2"
     style="fill:#0a66c2;fill-opacity:1;fill-rule:nonzero" />
</svg>
