<?xml version="1.0" encoding="UTF-8" standalone="no"?>
<!-- Uploaded to: SVG Repo, www.svgrepo.com, Generator: SVG Repo Mixer Tools -->

<svg
   fill="#000000"
   width="700.00067"
   height="700"
   viewBox="0 0 14.000013 14"
   version="1.1"
   id="svg17504"
   sodipodi:docname="tel.svg"
   xmlns:inkscape="http://www.inkscape.org/namespaces/inkscape"
   xmlns:sodipodi="http://sodipodi.sourceforge.net/DTD/sodipodi-0.dtd"
   xmlns="http://www.w3.org/2000/svg"
   xmlns:svg="http://www.w3.org/2000/svg">
  <defs
     id="defs17508" />
  <sodipodi:namedview
     id="namedview17506"
     pagecolor="#ffffff"
     bordercolor="#000000"
     borderopacity="0.25"
     inkscape:showpageshadow="2"
     inkscape:pageopacity="0.0"
     inkscape:pagecheckerboard="0"
     inkscape:deskcolor="#d1d1d1"
     showgrid="false" />
  <path
     d="m 10.004445,1.0242185 h 3.185257 C 12.910471,4.1805453 11.255349,7.5107916 9.2608209,9.6337407 7.2502194,11.770641 4.6392507,12.946273 1.9361248,12.931806 H 1.2203866 L 0.82372019,9.8426175 3.5813932,8.8751852 4.3621984,10.43627 l 0.5484229,0.756983 0.9945971,-0.6816 C 7.6860103,9.2891515 8.8068612,8.0043063 9.9424098,5.9728875 L 10.501967,4.7494622 8.7729401,3.923375 8.9540771,3.025045 9.9672643,1.0242185 m 0,-0.965862 C 9.5596503,0.06196074 9.1829394,0.31595794 8.9726678,0.72896307 L 8.1949944,2.7297897 C 7.8450606,3.4057386 7.8562889,4.2092453 8.452131,4.5719949 l 0.9295288,0.653331 C 8.3439607,7.0785499 6.9566185,8.6215135 5.3289098,9.7326824 L 4.5109232,8.5909233 C 4.3165139,8.1946773 3.9679302,7.93907 3.5813932,7.9093232 3.4515694,7.9089854 3.3226606,7.9350153 3.2002858,7.9862779 L 0.79280248,8.9537107 C 0.34395369,9.1637422 0.05165108,9.6801136 0.0584738,10.250949 l 0.39666641,2.72483 c 0.10926345,0.750566 0.52020568,0.965864 1.16191279,0.965864 H 1.9175342 C 8.0959707,13.943583 13.280493,8.4330833 13.936357,1.1671346 14.002011,0.3555693 13.463771,0.06112091 12.774444,0.0583565 Z"
     id="path17502"
     style="fill:#000000;fill-opacity:1;stroke:#000000;stroke-width:0.116713;stroke-dasharray:none;stroke-opacity:1"
     sodipodi:nodetypes="ccccccccccccccccccccccccccsscccc" />
</svg>
