<?xml version="1.0" encoding="UTF-8" standalone="no"?>
<!-- Uploaded to: SVG Repo, www.svgrepo.com, Generator: SVG Repo Mixer Tools -->

<svg
   fill="#000000"
   width="560.17499"
   height="552.36859"
   viewBox="0 0 22.407 22.094744"
   version="1.1"
   id="svg17383"
   sodipodi:docname="web.svg"
   inkscape:export-filename="web.svg"
   inkscape:export-xdpi="2.4000001"
   inkscape:export-ydpi="2.4000001"
   xmlns:inkscape="http://www.inkscape.org/namespaces/inkscape"
   xmlns:sodipodi="http://sodipodi.sourceforge.net/DTD/sodipodi-0.dtd"
   xmlns="http://www.w3.org/2000/svg"
   xmlns:svg="http://www.w3.org/2000/svg">
  <defs
     id="defs17387" />
  <sodipodi:namedview
     id="namedview17385"
     pagecolor="#ffffff"
     bordercolor="#000000"
     borderopacity="0.25"
     inkscape:showpageshadow="2"
     inkscape:pageopacity="0.0"
     inkscape:pagecheckerboard="0"
     inkscape:deskcolor="#d1d1d1"
     showgrid="false" />
  <title
     id="title17379">web</title>
  <path
     d="m -1.6403198e-8,10.688745 v -0.031 C 0.28099998,7.0327446 1.594,4.313745 3.875,2.594745 6.125,0.84474504 8.5629995,7.4503568e-4 11.218999,7.4503568e-4 c 2.781,-0.0309999957 5.375,0.90600000432 7.688,2.78099996432 2.344,1.844 3.5,4.5939996 3.5,8.156 v 0.219 c 0,3.594 -1.156,6.281 -3.5,8.125 -2.344,1.875 -4.938,2.813 -7.719,2.813 h -0.125 c -2.7189995,-0.031 -5.218999,-0.969 -7.530999,-2.844 -2.313,-1.844 -3.50000002,-4.688 -3.5310000164,-8.563 z M 10.530999,5.7827446 V 0.84474504 H 9.7809995 c -0.156,0.18799996 -0.281,0.40599996 -0.406,0.59399996 -0.125,0.188 -0.25,0.375 -0.375,0.594 -0.125,0.188 -0.281,0.438 -0.375,0.625 -0.125,0.188 -0.219,0.375 -0.313,0.594 -0.188,0.313 -0.344,0.625 -0.469,0.906 -0.156,0.281 -0.281,0.563 -0.375,0.813 0.188,0.1249996 0.406,0.2809996 0.656,0.3749996 0.281,0.094 0.563,0.188 0.844,0.25 0.313,0.063 0.594,0.094 0.844,0.125 0.2809995,0.031 0.5309995,0.063 0.7189995,0.063 z m 1.313,-4.93699956 V 5.7517446 c 0.156,0 0.344,0.031 0.531,0 0.188,0 0.406,-0.031 0.594,-0.063 0.344,-0.063 0.75,-0.156 1.063,-0.25 0.344,-0.125 0.656,-0.281 0.875,-0.4689996 -0.375,-0.906 -0.781,-1.625 -1.188,-2.313 -0.407,-0.688 -0.875,-1.281 -1.375,-1.78099996 v -0.031 h -0.5 z M 8.4689995,1.126745 v -0.031 c -0.219,0.094 -0.438,0.25 -0.688,0.344 -0.219,0.094 -0.5,0.219 -0.719,0.344 -0.438,0.219 -0.8749995,0.469 -1.3129995,0.75 -0.406,0.281 -0.813,0.594 -1.156,0.906 0.125,0.125 0.281,0.25 0.406,0.344 0.125,0.094 0.281,0.219 0.438,0.344 0.125,0.063 0.281,0.156 0.438,0.281 0.156,0.094 0.344,0.219 0.531,0.344 0.2499995,-0.563 0.4999995,-1.156 0.8129995,-1.688 0.313,-0.563 0.656,-1.094 1,-1.563 0.031,-0.063 0.063,-0.125 0.125,-0.188 0.031,-0.031 0.063,-0.125 0.125,-0.188 z m 9.5619995,2.312 v -0.031 c -0.781,-0.594 -1.469,-1.094 -2.156,-1.406 -0.687,-0.312 -1.375,-0.625 -2,-0.875 0.5,0.5 0.938,1.125 1.219,1.719 0.313,0.625 0.625,1.281 0.875,1.906 0.125,-0.063 0.281,-0.125 0.469,-0.25 0.156,-0.094 0.375,-0.188 0.563,-0.281 0.188,-0.125 0.344,-0.25 0.531,-0.375 0.188,-0.156 0.375,-0.281 0.5,-0.406 z m -0.531,6.969 h 3.594 c 0,-1.1560004 -0.25,-2.2500004 -0.719,-3.3750004 -0.438,-1.094 -1.063,-1.9999996 -1.844,-2.7809996 v -0.031 c -0.156,0.25 -0.375,0.469 -0.594,0.625 -0.25,0.156 -0.469,0.2809996 -0.719,0.4059996 -0.156,0.094 -0.313,0.219 -0.469,0.281 -0.156,0.094 -0.375,0.156 -0.531,0.25 0.125,0.25 0.25,0.531 0.375,0.781 0.094,0.281 0.25,0.594 0.313,0.875 0.188,0.5 0.313,1.031 0.438,1.563 0.094,0.469 0.156,0.969 0.156,1.4060004 z M 6.188,5.7827446 v -0.031 c -0.25,-0.125 -0.531,-0.219 -0.75,-0.344 -0.219,-0.156 -0.438,-0.313 -0.625,-0.4379996 -0.188,-0.094 -0.375,-0.219 -0.531,-0.344 -0.156,-0.125 -0.281,-0.25 -0.406,-0.375 -0.813,0.781 -1.406,1.6559996 -1.781,2.6879996 -0.406,1.031 -0.688,2.188 -0.813,3.4380004 h 3.844 c 0,-0.8750004 0.125,-1.7190004 0.344,-2.5630004 0.188,-0.875 0.469,-1.531 0.719,-2.031 z m 4.342999,4.5940004 V 6.7827446 c -0.25,0.031 -0.5629995,0.031 -0.8439995,0 -0.313,-0.031 -0.625,-0.125 -0.906,-0.219 -0.25,-0.063 -0.563,-0.125 -0.813,-0.219 -0.281,-0.063 -0.563,-0.188 -0.781,-0.313 -0.188,0.313 -0.344,0.688 -0.469,1.094 -0.156,0.375 -0.2499995,0.781 -0.3439995,1.156 -0.063,0.375 -0.094,0.781 -0.125,1.125 -0.031,0.344 -0.063,0.6880004 -0.063,0.9690004 h 4.343999 z m 1.313,-3.5310004 v 3.5310004 h 4.625 c 0,-0.188 0,-0.4060004 -0.031,-0.6560004 -0.063,-0.219 -0.094,-0.5 -0.125,-0.75 -0.094,-0.375 -0.188,-0.781 -0.313,-1.156 -0.125,-0.344 -0.25,-0.688 -0.406,-0.969 -0.063,-0.156 -0.125,-0.344 -0.188,-0.469 -0.094,-0.156 -0.188,-0.25 -0.25,-0.344 -0.344,0.25 -0.813,0.406 -1.375,0.531 -0.531,0.125 -1.156,0.25 -1.719,0.281 h -0.219 z M 5.125,11.407745 H 1.281 c 0,0.531 0.094,1.125 0.25,1.844 0.156,0.75 0.469,1.438 0.813,2.188 0.156,0.375 0.344,0.75 0.531,1.125 0.219,0.344 0.469,0.719 0.719,1.063 0.188,-0.125 0.375,-0.219 0.531,-0.313 0.188,-0.094 0.406,-0.219 0.594,-0.313 0.219,-0.094 0.438,-0.188 0.688,-0.313 0.219,-0.094 0.5,-0.219 0.781,-0.344 -0.25,-0.781 -0.531,-1.531 -0.719,-2.375 -0.219,-0.813 -0.344,-1.625 -0.344,-2.531 z m 5.405999,3.656 v -3.656 H 6.187 c 0,0.25 0.031,0.625 0.094,1 0.031,0.375 0.125,0.781 0.188,1.188 0.1249995,0.438 0.2189995,0.875 0.3439995,1.25 0.125,0.375 0.25,0.688 0.375,0.969 0.563,-0.219 1.125,-0.375 1.5,-0.469 0.406,-0.125 0.781,-0.219 1.156,-0.25 h 0.3439995 c 0.125,-0.031 0.25,-0.031 0.344,-0.031 z m 1.313,-3.656 v 3.625 c 0.219,0.031 0.469,0.063 0.719,0.094 0.281,0.031 0.625,0.094 0.906,0.156 l 0.469,0.094 c 0.156,0.063 0.344,0.094 0.5,0.125 0.188,0.063 0.375,0.094 0.563,0.156 0.156,0.063 0.313,0.094 0.438,0.156 0.406,-1.031 0.656,-1.875 0.813,-2.594 0.156,-0.688 0.219,-1.281 0.219,-1.781 v -0.031 h -4.625 z m 9.25,0.031 v -0.031 h -3.594 v 0.188 c -0.031,0.594 -0.125,1.281 -0.25,2 -0.125,0.688 -0.406,1.5 -0.781,2.5 0.5,0.25 0.969,0.5 1.344,0.75 0.375,0.25 0.719,0.531 0.969,0.781 0.531,-0.531 1,-1.25 1.406,-2.188 0.406,-0.906 0.688,-1.844 0.844,-2.844 0.031,-0.188 0.031,-0.375 0.063,-0.563 v -0.594 z m -10.563,9.5 v -4.875 c -0.7809995,0.125 -1.4379995,0.281 -1.9379995,0.406 -0.5,0.125 -0.875,0.25 -1.125,0.375 0.188,0.469 0.375,0.875 0.563,1.25 0.188,0.344 0.406,0.719 0.594,1.031 0.063,0.125 0.188,0.25 0.281,0.406 0.094,0.125 0.156,0.281 0.25,0.406 0.094,0.156 0.188,0.344 0.281,0.531 0.125,0.156 0.219,0.344 0.344,0.469 h 0.7499995 z m 1.313,0 h 0.719 c 0.281,-0.219 0.563,-0.531 0.781,-0.875 0.25,-0.344 0.531,-0.75 0.719,-1.094 0.219,-0.406 0.438,-0.781 0.625,-1.156 0.187,-0.375 0.344,-0.719 0.469,-0.969 -0.344,-0.125 -0.813,-0.25 -1.281,-0.375 -0.468,-0.125 -1.125,-0.25 -2.031,-0.375 v 4.844 z m 6.187,-2.562 v -0.031 c -0.063,-0.094 -0.188,-0.219 -0.281,-0.313 -0.093,-0.094 -0.25,-0.219 -0.406,-0.313 -0.125,-0.094 -0.281,-0.188 -0.469,-0.281 -0.188,-0.093 -0.438,-0.219 -0.656,-0.344 -0.125,0.25 -0.344,0.688 -0.656,1.281 -0.281,0.594 -0.781,1.313 -1.406,2.094 0.781,-0.125 1.469,-0.406 2.094,-0.781 0.688,-0.344 1.281,-0.813 1.781,-1.313 z m -11.624999,-1 v -0.031 c -0.219,0.125 -0.563,0.281 -0.906,0.438 -0.375,0.156 -0.781,0.344 -1.156,0.594 0.219,0.188 0.438,0.375 0.625,0.5 0.188,0.156 0.406,0.281 0.594,0.406 0.344,0.219 0.75,0.438 1.1559995,0.625 0.406,0.187 0.906,0.375 1.531,0.563 -0.219,-0.25 -0.375,-0.563 -0.531,-0.813 -0.156,-0.25 -0.344,-0.5 -0.5,-0.75 -0.156,-0.25 -0.281,-0.531 -0.406,-0.781 -0.156,-0.25 -0.2809995,-0.5 -0.4059995,-0.75 z"
     id="path17381" />
</svg>
